<svg width="400" height="291" viewBox="0 0 400 291" fill="none" xmlns="http://www.w3.org/2000/svg">
<path fill-rule="evenodd" clip-rule="evenodd" d="M269.268 102.257C264.163 103.084 260.961 107.164 261.248 112.478C261.484 116.864 263.897 119.199 270.8 121.72C274.56 123.093 275.847 124.279 275.504 126.052C274.662 130.404 268.254 129.863 266.62 125.302C266.414 124.728 266.168 124.27 266.073 124.284C265.796 124.329 259.905 125.946 259.849 125.994C259.73 126.094 260.636 128.342 261.241 129.449C266.021 138.186 281.317 135.917 282.836 126.246C283.675 120.897 281.219 117.662 274.314 115.024C269.411 113.151 268.399 112.43 268.401 110.808C268.404 106.966 274.082 106.944 275.783 110.779C276.304 111.953 275.997 111.96 279.334 110.704C282.586 109.48 282.545 109.547 281.419 107.366C279.295 103.25 274.802 101.36 269.268 102.257ZM223.6 102.869C223.6 103.111 230.327 133.46 230.523 134.103C230.617 134.408 230.955 134.442 233.886 134.442H237.146L238.798 126.246C239.707 121.738 240.688 116.885 240.978 115.461L241.506 112.874L243.582 123.415C244.724 129.214 245.7 134.067 245.751 134.2C245.945 134.712 252.372 134.527 252.498 134.006C252.557 133.766 254.092 126.806 255.909 118.541C257.727 110.275 259.266 103.313 259.329 103.07L259.443 102.626H256.335C253.545 102.626 253.217 102.661 253.13 102.966C253.076 103.153 252.194 107.949 251.17 113.623C250.146 119.299 249.289 123.924 249.266 123.901C249.209 123.846 245.4 103.08 245.4 102.826C245.4 102.43 238.645 102.568 238.521 102.966C238.463 103.153 237.552 107.758 236.496 113.199C235.441 118.641 234.526 123.224 234.463 123.384C234.4 123.544 233.6 118.961 232.685 113.199C231.77 107.438 231.016 102.702 231.011 102.675C230.966 102.468 223.6 102.661 223.6 102.869ZM288.742 118.004C286.126 126.458 283.933 133.572 283.869 133.812L283.753 134.248H287.14H290.526L291.297 131.047L292.068 127.846H296.617H301.166L301.939 130.999L302.712 134.151L306.479 134.204L310.246 134.257L310.108 133.719C310.033 133.424 307.987 126.459 305.561 118.243C303.135 110.027 301.106 103.153 301.052 102.966C300.963 102.658 300.606 102.626 297.227 102.629L293.5 102.632L288.742 118.004ZM298.197 116.194L299.752 122.22H296.676C294.984 122.22 293.599 122.155 293.597 122.075C293.591 121.757 296.499 110.029 296.567 110.096C296.608 110.135 297.341 112.879 298.197 116.194ZM252.156 143.76C243.186 145.226 241.371 163.502 249.8 167.481C252.978 168.982 257.033 168.42 258.849 166.228L259.496 165.447L259.807 166.677L260.119 167.907L261.359 167.966L262.6 168.023V161.612V155.2H258.3H254V157.237V159.274H255.8C257.423 159.274 257.6 159.31 257.6 159.636C257.6 165.124 251.683 165.468 250.593 160.044C250.297 158.573 250.289 153.833 250.58 152.193C251.515 146.912 256.279 146.553 257.412 151.677C257.534 152.228 257.693 152.679 257.767 152.679C258.283 152.684 262.332 152.017 262.459 151.906C262.715 151.685 262.06 149.039 261.423 147.719C259.925 144.613 256.332 143.078 252.156 143.76ZM311.437 143.766C305.745 144.745 302.615 152.09 304.375 160.341C306.502 170.316 318.931 171.413 321.485 161.852C322.048 159.746 321.978 159.514 320.75 159.394C316.592 158.986 316.761 158.941 316.505 160.535C315.964 163.909 312.466 165.09 310.793 162.465C309.555 160.521 309.449 152.756 310.625 150.158C312.309 146.441 316.077 147.722 316.541 152.169L316.66 153.31L319.18 153.171C322.197 153.004 321.912 153.244 321.547 151.184C320.542 145.513 316.885 142.83 311.437 143.766ZM358.067 143.768C353.865 144.291 351.253 147.809 351.843 152.148C352.249 155.133 353.997 156.669 359.082 158.51C362.766 159.844 363.679 162.345 360.923 163.559C358.829 164.481 356.875 163.619 355.926 161.354L355.483 160.295L354.291 160.644C353.636 160.836 352.573 161.139 351.929 161.317C350.575 161.693 350.546 161.86 351.505 163.826C355.093 171.183 367.569 169.201 367.963 161.211C368.153 157.361 366.61 155.356 362.1 153.595C357.681 151.87 356.637 150.986 357.274 149.507C358.172 147.423 361.111 147.62 362.408 149.85C363.159 151.14 362.824 151.109 365.453 150.128C367.877 149.223 367.793 149.376 366.875 147.5C365.521 144.733 362.066 143.269 358.067 143.768ZM231.122 144.288C231.064 144.474 229.435 149.778 227.502 156.073C225.569 162.369 223.948 167.629 223.9 167.762C223.833 167.948 224.415 168.004 226.39 168.004H228.967L229.395 166.21C229.631 165.223 229.912 164.088 230.019 163.688L230.215 162.96H233.569H236.922L237.511 165.434L238.1 167.907L240.95 167.961C242.518 167.991 243.8 167.967 243.8 167.909C243.8 167.828 237.373 145.898 236.878 144.288C236.785 143.986 236.468 143.948 234 143.948C231.532 143.948 231.215 143.986 231.122 144.288ZM266.6 155.976V168.009L274.15 167.958L281.7 167.907V165.773V163.639L276.95 163.587L272.2 163.536V160.725V157.916H275.9H279.6V155.782V153.648H275.9H272.2V150.932V148.216H277.007H281.814L281.757 146.131L281.7 144.045L274.15 143.995L266.6 143.943V155.976ZM284 155.976V168.004H286.198H288.396L288.448 159.762L288.5 151.519L292.034 159.714L295.569 167.907L298.084 167.962L300.6 168.016V155.982V143.948H298.402H296.205L296.152 151.039L296.1 158.131L293.1 151.043L290.1 143.955L287.05 143.951L284 143.948V155.976ZM324.8 155.976V168.004H327.6H330.4V155.976V143.948H327.6H324.8V155.976ZM334.933 144.077C334.86 144.149 334.8 149.562 334.8 156.105V168.004H342.4H350V165.773V163.542H345.2H340.4V160.729V157.916H344.1H347.8V155.782V153.648H344.1H340.4V150.932V148.216H345.2H350V146.082V143.948H342.533C338.427 143.948 335.007 144.007 334.933 144.077ZM235.794 158.644C235.799 158.824 235.205 158.886 233.479 158.886C231.657 158.886 231.179 158.832 231.257 158.634C231.312 158.495 231.837 156.394 232.425 153.965L233.493 149.547L234.641 153.974C235.272 156.409 235.791 158.511 235.794 158.644Z" fill="#7B7B7C"/>
<path fill-rule="evenodd" clip-rule="evenodd" d="M12.8008 101.413C12.8018 101.665 66.3518 191.366 66.5298 191.415C66.6238 191.441 73.2678 179.999 81.2948 165.987L95.8898 140.513L97.6978 143.347C98.6928 144.904 100.937 148.43 102.686 151.182C104.434 153.933 105.94 156.112 106.033 156.022C106.355 155.709 127.419 119.461 127.36 119.322C127.23 119.016 113.318 101.268 113.213 101.275C113.151 101.279 107.216 110.754 100.024 122.332C92.8318 133.91 86.8708 143.356 86.7768 143.325C86.6818 143.294 79.7798 133.841 71.4378 122.317L56.2698 101.365L34.5348 101.316C22.5808 101.288 12.7998 101.332 12.8008 101.413ZM155.345 108.398C153.338 112.319 150.938 117.098 150.014 119.019C149.089 120.94 144.202 130.532 139.153 140.336L129.973 158.161L128.983 156.826C128.439 156.091 126.487 153.467 124.647 150.993L121.3 146.495L121.019 147.016C120.865 147.302 118.626 151.335 116.043 155.976C113.46 160.618 111.344 164.502 111.341 164.609C111.332 164.848 128.157 191.362 128.36 191.431C128.476 191.469 136.612 175.249 138.943 170.332C140.171 167.742 159.206 129.604 159.572 129.001C159.899 128.461 172.964 102.371 173.337 101.511C173.421 101.319 171.921 101.268 166.219 101.268H158.996L155.345 108.398Z" fill="#14345C"/>
<path fill-rule="evenodd" clip-rule="evenodd" d="M133.004 110.017C130.112 114.829 127.565 119.127 127.345 119.568C126.746 120.771 106.165 156.058 105.997 156.17C105.844 156.273 86.7998 191.203 86.7998 191.381C86.7998 191.438 88.8878 191.462 91.4408 191.434L96.0818 191.381L103.452 178.48C107.506 171.385 111.028 165.143 111.278 164.609C111.73 163.649 120.337 148.042 120.994 146.993L121.335 146.448L125.352 151.843C127.561 154.809 129.501 157.409 129.663 157.618C130.038 158.103 150.77 118.171 150.466 117.55C150.217 117.04 138.519 101.288 138.382 101.277C138.317 101.272 135.897 105.205 133.004 110.017ZM148.823 150.567C142.973 162.313 138.426 171.67 138.49 171.831C138.552 171.989 141.325 176.474 144.652 181.798L150.7 191.476L178.174 191.477L205.647 191.478L205.159 190.848C204.89 190.501 194.521 176.577 182.115 159.905C169.709 143.232 159.494 129.592 159.414 129.592C159.335 129.592 154.568 139.031 148.823 150.567Z" fill="#73CBCB"/>
<path fill-rule="evenodd" clip-rule="evenodd" d="M210.8 146.955V191.866H213.1H215.4V146.955V102.044H213.1H210.8V146.955Z" fill="#6C6C6C"/>
<path fill-rule="evenodd" clip-rule="evenodd" d="M314.625 179.353C310.653 180.555 311.221 184.338 315.642 186.123C320.043 187.901 317.942 191.652 313.4 190.126C312.189 189.719 312.064 189.76 311.885 190.628C311.424 192.866 318.392 192.224 319.605 189.917C320.743 187.753 319.863 186.13 316.8 184.743C314.502 183.704 314 183.288 314 182.434C314 180.923 316.033 180.151 318.143 180.862L318.986 181.146L319.207 180.496C319.496 179.648 319.391 179.522 318.188 179.272C316.874 178.998 315.709 179.025 314.625 179.353ZM363.077 179.336C356.913 180.787 356.313 189.861 362.267 191.576C364.131 192.113 368.4 191.835 368.4 191.176C368.4 190.174 368.078 189.963 366.971 190.241C363.099 191.216 360.153 189.201 360.157 185.581C360.162 181.923 363.58 179.613 367.185 180.832C367.946 181.089 368.198 180.921 368.258 180.114C368.328 179.178 365.531 178.758 363.077 179.336ZM382.425 179.353C378.453 180.555 379.021 184.338 383.442 186.123C387.843 187.901 385.742 191.652 381.2 190.126C379.989 189.719 379.864 189.76 379.685 190.628C379.385 192.082 384.318 192.46 386.279 191.133C389.07 189.243 388.28 186.418 384.477 184.683C382.373 183.725 381.8 183.22 381.8 182.328C381.8 180.926 383.91 180.178 385.937 180.86L386.774 181.142L387.01 180.591C387.563 179.296 384.948 178.59 382.425 179.353ZM224.719 180.372C224.653 180.986 224.465 183.364 224.3 185.658C224.136 187.952 223.953 190.244 223.894 190.751L223.786 191.672H224.671C225.765 191.672 225.696 191.962 226.03 185.934L226.277 181.456L227.108 183.897C227.564 185.239 228.372 187.498 228.902 188.917L229.867 191.497L230.651 191.439L231.436 191.381L232.447 188.859C233.003 187.472 233.892 185.202 234.422 183.815L235.386 181.293L235.391 182.651C235.394 183.398 235.504 185.734 235.634 187.841L235.872 191.672H236.813H237.754L237.659 190.46C237.607 189.793 237.414 187.021 237.232 184.3L236.9 179.353L235.7 179.298L234.5 179.243L233.052 182.887C232.255 184.891 231.412 187.085 231.177 187.761L230.751 188.991L230.109 187.082C229.755 186.033 228.943 183.842 228.303 182.215L227.141 179.256H225.99H224.839L224.719 180.372ZM243.499 179.499C243.217 180.267 239.134 191.225 239.054 191.428C238.984 191.604 239.235 191.672 239.955 191.672H240.953L241.653 189.781L242.352 187.889H244.7H247.048L247.747 189.781L248.447 191.672H249.423C250.631 191.672 250.786 192.44 248.15 185.331L245.9 179.263L244.744 179.259C243.997 179.257 243.556 179.341 243.499 179.499ZM252.45 179.375C252.258 179.458 252.2 180.888 252.2 185.578V191.672H253.2H254.2V188.931V186.19L255.45 186.321C257.462 186.531 257.814 186.945 258.796 190.266L259.212 191.672H260.227C261.116 191.672 261.225 191.629 261.098 191.333C261.019 191.146 260.74 190.251 260.478 189.344C259.833 187.104 259.64 186.696 258.979 186.156L258.41 185.691L259.103 185.294C261.198 184.095 261.139 180.971 258.999 179.752C258.309 179.358 253.179 179.064 252.45 179.375ZM263 185.464V191.672H264H265V185.464V179.256H264H263V185.464ZM266.2 180.032V180.808H268.3H270.4V186.24V191.672H271.3H272.2V186.24V180.808H274.3H276.4V180.032V179.256H271.3H266.2V180.032ZM277.6 185.464V191.672H278.6H279.6V185.464V179.256H278.6H277.6V185.464ZM282.998 179.78C282.997 180.079 282.818 182.549 282.6 185.27C282.382 187.991 282.203 190.545 282.202 190.945L282.2 191.672H283.07H283.94L284.066 189.781C284.135 188.741 284.244 186.754 284.309 185.367C284.491 181.432 284.478 181.432 285.896 185.367C286.587 187.288 287.367 189.427 287.628 190.12L288.103 191.381H288.895H289.686L290.75 188.762C291.335 187.322 292.212 185.095 292.699 183.815C293.399 181.974 293.586 181.629 293.592 182.166C293.605 183.376 294.005 189.999 294.116 190.848L294.225 191.672H295.112C295.691 191.672 295.999 191.588 295.996 191.43C295.994 191.297 295.816 188.743 295.6 185.755C295.384 182.767 295.206 180.079 295.204 179.78C295.2 179.24 295.196 179.238 293.979 179.295L292.758 179.353L291.655 182.069C291.048 183.563 290.21 185.725 289.793 186.874L289.036 188.964L288.417 187.165C288.076 186.176 287.271 184.014 286.628 182.36L285.458 179.353L284.229 179.295C283.003 179.238 283 179.239 282.998 179.78ZM298.6 185.464V191.672H302.4H306.2V190.896V190.12H303.3H300.4V187.986V185.852H303H305.6V185.173V184.494H303H300.4V182.651V180.808H303.2H306V180.032V179.256H302.3H298.6V185.464ZM322.2 185.561V191.866H326.1H330V191.09V190.314H327.1H324.2V188.18V186.046H326.8H329.4V185.27V184.494H326.8H324.2V182.651V180.808H326.9H329.6V180.032V179.256H325.9H322.2V185.561ZM332.35 179.38C332.026 179.471 332 179.94 332 185.673V191.866H333H334V189.128V186.389L335.326 186.471C336.881 186.567 337.616 187.155 338 188.609C338.12 189.067 338.374 189.965 338.564 190.605L338.91 191.769L339.855 191.828C340.965 191.898 340.945 192.001 340.284 189.692C339.579 187.225 339.455 186.946 338.796 186.333L338.221 185.8L338.842 185.389C340.977 183.979 340.915 181.028 338.726 179.813C337.915 179.363 333.488 179.063 332.35 179.38ZM341.6 179.312C341.6 179.417 345.335 190.011 345.738 191.05L346.062 191.885L347.058 191.826L348.054 191.769L350.427 185.673C353.196 178.559 353.045 179.256 351.821 179.256H350.842L349.997 181.536C349.532 182.789 348.681 185.143 348.105 186.767L347.059 189.719L346.633 188.222C346.399 187.398 345.636 185.066 344.938 183.039L343.667 179.353L342.634 179.295C342.065 179.262 341.6 179.271 341.6 179.312ZM354.2 185.561V191.866H355.1H356V185.561V179.256H355.1H354.2V185.561ZM370.4 185.561V191.866H374.3H378.2V191.09V190.314H375.3H372.4V188.18V186.046H375H377.6V185.27V184.494H375H372.4V182.651V180.808H375.1H377.8V180.032V179.256H374.1H370.4V185.561ZM257.82 181.057C259.952 182.447 258.678 184.728 255.615 185.004L254.2 185.131V182.873V180.614H255.67C256.87 180.614 257.266 180.696 257.82 181.057ZM337.42 181.057C339.716 182.557 338.297 185.076 335.158 185.076H334V182.845V180.614H335.37C336.467 180.614 336.877 180.702 337.42 181.057ZM245.715 184.058L246.583 186.434H244.67C242.925 186.434 242.77 186.404 242.905 186.095C242.986 185.908 243.423 184.687 243.876 183.382C244.329 182.078 244.733 181.161 244.773 181.345C244.814 181.53 245.237 182.751 245.715 184.058Z" fill="#3C3C3C"/>
</svg>
